HIERARCHY
ROOT mixamorig:Hips
{
	OFFSET 0.000000 104.274902 0.000000
	CHANNELS 6 Xposition Yposition Zposition Xrotation Yrotation Zrotation
	JOINT mixamorig:Spine
	{
		OFFSET 0.000000 10.181549 0.131524
		CHANNELS 6 Xposition Yposition Zposition Xrotation Yrotation Zrotation
		JOINT mixamorig:Spine1
		{
			OFFSET 0.000000 9.893990 -1.470706
			CHANNELS 3 Xrotation Yrotation Zrotation
			JOINT mixamorig:Spine2
			{
				OFFSET 0.000000 9.220787 -1.370637
				CHANNELS 3 Xrotation Yrotation Zrotation
				JOINT mixamorig:Neck
				{
					OFFSET 0.000000 16.740372 -2.049022
					CHANNELS 6 Xposition Yposition Zposition Xrotation Yrotation Zrotation
					JOINT mixamorig:Head
					{
						OFFSET 0.000000 9.617859 1.684976
						CHANNELS 6 Xposition Yposition Zposition Xrotation Yrotation Zrotation
						JOINT mixamorig:HeadTop_End
						{
							OFFSET 0.000000 22.037384 7.501072
							CHANNELS 6 Xposition Yposition Zposition Xrotation Yrotation Zrotation
							End Site
							{
								OFFSET 0.000000 23.106567 -2.828246
							}
						}
					}
				}
				JOINT mixamorig:RightShoulder
				{
					OFFSET -4.570000 11.014877 -2.160840
					CHANNELS 6 Xposition Yposition Zposition Xrotation Yrotation Zrotation
					JOINT mixamorig:RightArm
					{
						OFFSET -10.592867 -0.524796 -2.232105
						CHANNELS 3 Xrotation Yrotation Zrotation
						JOINT mixamorig:RightForeArm
						{
							OFFSET -27.841497 0.000000 -0.000002
							CHANNELS 3 Xrotation Yrotation Zrotation
							JOINT mixamorig:RightHand
							{
								OFFSET -28.328812 0.000000 -0.000001
								CHANNELS 3 Xrotation Yrotation Zrotation
								JOINT mixamorig:RightHandThumb1
								{
									OFFSET -2.464798 -1.573990 2.681911
									CHANNELS 6 Xposition Yposition Zposition Xrotation Yrotation Zrotation
									JOINT mixamorig:RightHandThumb2
									{
										OFFSET -3.244781 -1.873383 1.873376
										CHANNELS 3 Xrotation Yrotation Zrotation
										JOINT mixamorig:RightHandThumb3
										{
											OFFSET -2.646263 -1.527817 1.527818
											CHANNELS 6 Xposition Yposition Zposition Xrotation Yrotation Zrotation
											JOINT mixamorig:RightHandThumb4
											{
												OFFSET -1.994591 -1.151581 1.151575
												CHANNELS 6 Xposition Yposition Zposition Xrotation Yrotation Zrotation
												End Site
												{
													OFFSET -1.860176 -1.142715 1.365483
												}
											}
										}
									}
								}
								JOINT mixamorig:RightHandIndex1
								{
									OFFSET -9.108299 -0.517883 2.259803
									CHANNELS 6 Xposition Yposition Zposition Xrotation Yrotation Zrotation
									JOINT mixamorig:RightHandIndex2
									{
										OFFSET -3.699997 0.000000 0.000000
										CHANNELS 3 Xrotation Yrotation Zrotation
										JOINT mixamorig:RightHandIndex3
										{
											OFFSET -2.850006 0.000000 0.000000
											CHANNELS 3 Xrotation Yrotation Zrotation
											JOINT mixamorig:RightHandIndex4
											{
												OFFSET -2.772194 0.000000 0.000000
												CHANNELS 3 Xrotation Yrotation Zrotation
												End Site
												{
													OFFSET -2.772202 0.000000 -0.000484
												}
											}
										}
									}
								}
								JOINT mixamorig:RightHandMiddle1
								{
									OFFSET -9.532501 0.000000 -0.000000
									CHANNELS 6 Xposition Yposition Zposition Xrotation Yrotation Zrotation
									JOINT mixamorig:RightHandMiddle2
									{
										OFFSET -3.699997 0.000000 0.000000
										CHANNELS 3 Xrotation Yrotation Zrotation
										JOINT mixamorig:RightHandMiddle3
										{
											OFFSET -2.949997 0.000000 0.000000
											CHANNELS 3 Xrotation Yrotation Zrotation
											JOINT mixamorig:RightHandMiddle4
											{
												OFFSET -2.946594 0.000000 0.000000
												CHANNELS 3 Xrotation Yrotation Zrotation
												End Site
												{
													OFFSET -2.946602 0.000000 -0.000982
												}
											}
										}
									}
								}
								JOINT mixamorig:RightHandRing1
								{
									OFFSET -9.103600 -0.043106 -1.865100
									CHANNELS 6 Xposition Yposition Zposition Xrotation Yrotation Zrotation
									JOINT mixamorig:RightHandRing2
									{
										OFFSET -3.379303 0.000000 0.000000
										CHANNELS 3 Xrotation Yrotation Zrotation
										JOINT mixamorig:RightHandRing3
										{
											OFFSET -2.889694 0.000000 0.000000
											CHANNELS 3 Xrotation Yrotation Zrotation
											JOINT mixamorig:RightHandRing4
											{
												OFFSET -2.638802 0.000000 0.000000
												CHANNELS 3 Xrotation Yrotation Zrotation
												End Site
												{
													OFFSET -2.638802 0.000000 0.004218
												}
											}
										}
									}
								}
								JOINT mixamorig:RightHandPinky1
								{
									OFFSET -8.076698 -0.486725 -3.806299
									CHANNELS 6 Xposition Yposition Zposition Xrotation Yrotation Zrotation
									JOINT mixamorig:RightHandPinky2
									{
										OFFSET -3.600006 0.000000 0.000000
										CHANNELS 3 Xrotation Yrotation Zrotation
										JOINT mixamorig:RightHandPinky3
										{
											OFFSET -2.099998 0.000000 0.000000
											CHANNELS 3 Xrotation Yrotation Zrotation
											JOINT mixamorig:RightHandPinky4
											{
												OFFSET -2.115791 0.000000 0.000000
												CHANNELS 3 Xrotation Yrotation Zrotation
												End Site
												{
													OFFSET -2.115799 0.000000 0.000174
												}
											}
										}
									}
								}
							}
						}
					}
				}
				JOINT mixamorig:LeftShoulder
				{
					OFFSET 4.570400 11.014679 -2.160816
					CHANNELS 6 Xposition Yposition Zposition Xrotation Yrotation Zrotation
					JOINT mixamorig:LeftArm
					{
						OFFSET 10.592373 -0.524597 -2.232116
						CHANNELS 3 Xrotation Yrotation Zrotation
						JOINT mixamorig:LeftForeArm
						{
							OFFSET 27.841488 0.000000 0.000001
							CHANNELS 3 Xrotation Yrotation Zrotation
							JOINT mixamorig:LeftHand
							{
								OFFSET 28.328808 0.000000 -0.000000
								CHANNELS 3 Xrotation Yrotation Zrotation
								JOINT mixamorig:LeftHandThumb1
								{
									OFFSET 2.466103 -1.576202 2.681698
									CHANNELS 6 Xposition Yposition Zposition Xrotation Yrotation Zrotation
									JOINT mixamorig:LeftHandThumb2
									{
										OFFSET 3.243317 -1.872528 1.872530
										CHANNELS 3 Xrotation Yrotation Zrotation
										JOINT mixamorig:LeftHandThumb3
										{
											OFFSET 2.647881 -1.528763 1.528754
											CHANNELS 6 Xposition Yposition Zposition Xrotation Yrotation Zrotation
											JOINT mixamorig:LeftHandThumb4
											{
												OFFSET 1.998924 -1.154083 1.154080
												CHANNELS 6 Xposition Yposition Zposition Xrotation Yrotation Zrotation
												End Site
												{
													OFFSET 1.884041 -1.149155 1.337651
												}
											}
										}
									}
								}
								JOINT mixamorig:LeftHandIndex1
								{
									OFFSET 9.109299 -0.518005 2.259900
									CHANNELS 6 Xposition Yposition Zposition Xrotation Yrotation Zrotation
									JOINT mixamorig:LeftHandIndex2
									{
										OFFSET 3.699997 0.000000 0.000000
										CHANNELS 3 Xrotation Yrotation Zrotation
										JOINT mixamorig:LeftHandIndex3
										{
											OFFSET 2.850006 0.000000 0.000000
											CHANNELS 3 Xrotation Yrotation Zrotation
											JOINT mixamorig:LeftHandIndex4
											{
												OFFSET 2.774895 0.000000 0.000000
												CHANNELS 3 Xrotation Yrotation Zrotation
												End Site
												{
													OFFSET 2.774902 0.000000 -0.000072
												}
											}
										}
									}
								}
								JOINT mixamorig:LeftHandMiddle1
								{
									OFFSET 9.533401 0.000000 0.000000
									CHANNELS 6 Xposition Yposition Zposition Xrotation Yrotation Zrotation
									JOINT mixamorig:LeftHandMiddle2
									{
										OFFSET 3.699997 0.000000 0.000000
										CHANNELS 3 Xrotation Yrotation Zrotation
										JOINT mixamorig:LeftHandMiddle3
										{
											OFFSET 2.949997 0.000000 0.000000
											CHANNELS 3 Xrotation Yrotation Zrotation
											JOINT mixamorig:LeftHandMiddle4
											{
												OFFSET 2.952896 0.000000 0.000000
												CHANNELS 3 Xrotation Yrotation Zrotation
												End Site
												{
													OFFSET 2.952904 0.000000 0.000165
												}
											}
										}
									}
								}
								JOINT mixamorig:LeftHandRing1
								{
									OFFSET 9.104500 -0.042999 -1.865101
									CHANNELS 6 Xposition Yposition Zposition Xrotation Yrotation Zrotation
									JOINT mixamorig:LeftHandRing2
									{
										OFFSET 3.149994 0.000000 0.000000
										CHANNELS 3 Xrotation Yrotation Zrotation
										JOINT mixamorig:LeftHandRing3
										{
											OFFSET 2.950005 0.000000 0.000000
											CHANNELS 3 Xrotation Yrotation Zrotation
											JOINT mixamorig:LeftHandRing4
											{
												OFFSET 2.644302 0.000000 0.000000
												CHANNELS 3 Xrotation Yrotation Zrotation
												End Site
												{
													OFFSET 2.644302 0.000000 0.000083
												}
											}
										}
									}
								}
								JOINT mixamorig:LeftHandPinky1
								{
									OFFSET 8.077805 -0.486893 -3.806302
									CHANNELS 6 Xposition Yposition Zposition Xrotation Yrotation Zrotation
									JOINT mixamorig:LeftHandPinky2
									{
										OFFSET 3.600006 0.000000 0.000000
										CHANNELS 3 Xrotation Yrotation Zrotation
										JOINT mixamorig:LeftHandPinky3
										{
											OFFSET 2.099998 0.000000 0.000000
											CHANNELS 3 Xrotation Yrotation Zrotation
											JOINT mixamorig:LeftHandPinky4
											{
												OFFSET 2.125496 0.000000 0.000000
												CHANNELS 3 Xrotation Yrotation Zrotation
												End Site
												{
													OFFSET 2.125504 0.000000 -0.001254
												}
											}
										}
									}
								}
							}
						}
					}
				}
			}
		}
	}
	JOINT mixamorig:RightUpLeg
	{
		OFFSET -8.207800 -6.751701 -1.599544
		CHANNELS 6 Xposition Yposition Zposition Xrotation Yrotation Zrotation
		JOINT mixamorig:RightLeg
		{
			OFFSET 0.000004 -44.370152 0.345934
			CHANNELS 3 Xrotation Yrotation Zrotation
			JOINT mixamorig:RightFoot
			{
				OFFSET 0.000004 -44.423664 -3.043535
				CHANNELS 3 Xrotation Yrotation Zrotation
				JOINT mixamorig:RightToeBase
				{
					OFFSET 0.000001 -8.728691 10.710592
					CHANNELS 3 Xrotation Yrotation Zrotation
					JOINT mixamorig:RightToe_End
					{
						OFFSET 0.000000 -0.000665 9.278101
						CHANNELS 3 Xrotation Yrotation Zrotation
						End Site
						{
							OFFSET 0.000000 -0.000665 9.278103
						}
					}
				}
			}
		}
	}
	JOINT mixamorig:LeftUpLeg
	{
		OFFSET 8.207800 -6.751701 -1.599544
		CHANNELS 6 Xposition Yposition Zposition Xrotation Yrotation Zrotation
		JOINT mixamorig:LeftLeg
		{
			OFFSET 0.000004 -44.370037 0.346940
			CHANNELS 3 Xrotation Yrotation Zrotation
			JOINT mixamorig:LeftFoot
			{
				OFFSET 0.000004 -44.423611 -3.044388
				CHANNELS 3 Xrotation Yrotation Zrotation
				JOINT mixamorig:LeftToeBase
				{
					OFFSET 0.000001 -8.728690 10.710592
					CHANNELS 3 Xrotation Yrotation Zrotation
					JOINT mixamorig:LeftToe_End
					{
						OFFSET 0.000000 -0.000680 9.278101
						CHANNELS 3 Xrotation Yrotation Zrotation
						End Site
						{
							OFFSET 0.000000 -0.000680 9.278101
						}
					}
				}
			}
		}
	}
}
MOTION
Frames: 4
Frame Time: 0.033333
-0.068017 57.924500 3.261068 -9.556611 -0.353716 1.345244 -0.000000 10.181550 0.131521 13.876194 -0.870735 -1.077524 2.250088 -0.085529 -0.192037 2.249955 -0.103094 -0.325834 -0.000000 16.740366 -2.049022 3.383606 -0.735756 -0.276111 -0.000000 9.617836 1.684978 -10.521163 1.973771 0.454084 0.000000 22.037369 7.501075 -0.000000 0.000000 0.000000 -4.570001 11.014884 -2.160841 0.278437 25.894251 6.034446 -20.538329 34.802307 32.532492 -0.000003 27.509101 0.000022 21.304426 5.510900 -30.181469 -2.464808 -1.573992 2.681909 -12.729400 -9.989194 9.692878 6.358349 -14.447616 -2.112187 -2.646268 -1.527819 1.527819 3.558348 -4.001275 -15.365381 -1.994579 -1.151584 1.151570 0.000001 0.000001 0.000001 -9.108301 -0.517862 2.259804 -1.689243 0.199005 26.189793 0.612764 -2.311056 29.696764 0.152880 -1.184690 14.705723 0.000001 -0.000000 -0.000002 -9.532511 0.000010 0.000001 -0.108353 -2.680859 20.121461 0.655570 -2.384482 30.741790 0.028831 -0.517963 6.371620 0.000000 0.000000 0.000002 -9.103613 -0.043106 -1.865102 1.360474 -6.027458 26.138198 0.356872 -1.789625 22.553800 0.039581 -0.606558 7.467297 -0.000001 0.000000 0.000003 -8.076702 -0.486708 -3.806300 4.002532 -10.781400 28.111273 0.403526 -1.898002 24.003604 0.069855 -0.804496 9.925858 0.000001 -0.000001 0.000004 4.570401 11.014691 -2.160814 1.762913 -12.691895 -7.390945 -38.759848 -25.566424 -58.225163 0.000007 -39.520308 0.000003 42.543913 -14.267674 38.637113 2.466105 -1.576191 2.681700 -0.796350 7.960940 -3.834623 7.214612 19.857032 -8.412181 2.647894 -1.528729 1.528755 3.335462 4.347441 14.663801 1.998920 -1.154084 1.154081 0.000002 -0.000001 0.000002 9.109300 -0.518015 2.259899 0.371523 4.233316 -18.478536 0.567495 2.517410 -25.405435 0.009182 0.328360 -3.205976 0.000001 0.000000 -0.000000 9.533405 0.000001 0.000000 0.214714 3.680930 -13.006347 0.519264 2.413335 -24.284239 0.258205 1.721806 -17.057489 0.000001 0.000000 0.000000 9.104498 -0.043005 -1.865101 1.438771 8.836154 -13.082419 0.449126 2.251569 -22.560750 0.613558 2.612088 -26.434849 0.000000 -0.000000 -0.000000 8.077803 -0.486898 -3.806304 1.178540 7.848758 -12.789819 0.699731 2.778499 -28.266953 0.063598 0.861924 -8.442022 0.000000 0.000000 -0.000001 -8.207802 -6.751701 -1.599535 -83.337146 -0.986314 -8.163719 91.268792 -9.374102 0.585366 0.638638 -2.588044 -3.515565 -0.125175 -0.000002 0.000002 -0.000000 -0.000000 0.000000 8.207800 -6.751698 -1.599542 -82.270175 -0.086913 12.146344 87.708064 -8.310931 -5.225489 4.192743 0.090865 3.534185 -0.000100 0.000000 -0.000004 -0.000000 0.000000 0.000000 
-0.065222 57.918686 3.260134 -9.557212 -0.354373 1.344099 0.000000 10.181547 0.131523 13.884261 -0.869889 -1.074042 2.250087 -0.085529 -0.192037 2.249955 -0.103094 -0.325834 -0.000000 16.740366 -2.049023 3.383606 -0.735756 -0.276122 0.000000 9.617849 1.684979 -10.507701 1.988801 0.461121 0.000000 22.037384 7.501073 -0.000000 0.000000 -0.000000 -4.570000 11.014867 -2.160840 0.245194 25.672203 6.148689 -20.026258 35.325738 32.209386 -0.000025 27.707193 0.000044 21.065898 5.423019 -30.277300 -2.464795 -1.573992 2.681905 -12.729391 -9.989197 9.692859 6.212641 -14.118811 -2.206696 -2.646270 -1.527820 1.527819 3.591483 -4.112291 -15.266238 -1.994574 -1.151585 1.151572 0.000003 -0.000002 -0.000004 -9.108305 -0.517880 2.259800 -1.701841 0.273561 25.953051 0.637566 -2.353965 30.305990 0.154836 -1.192118 14.800156 -0.000000 -0.000000 -0.000001 -9.532492 -0.000004 -0.000003 -0.077824 -2.748141 19.853130 0.661816 -2.394925 30.891460 0.030455 -0.532365 6.549655 -0.000000 0.000001 -0.000000 -9.103588 -0.043109 -1.865104 1.357903 -6.047515 25.802223 0.361536 -1.800810 22.702821 0.039583 -0.606512 7.466775 0.000000 -0.000001 0.000003 -8.076694 -0.486722 -3.806303 4.110727 -11.028410 27.935586 0.404052 -1.899177 24.019453 0.069865 -0.804534 9.926289 -0.000001 -0.000001 0.000005 4.570403 11.014669 -2.160816 1.737990 -12.695275 -7.504390 -38.651443 -25.626455 -58.058575 0.000013 -39.639119 0.000006 42.472292 -14.204910 38.462465 2.466110 -1.576201 2.681700 -0.796351 7.960935 -3.834626 7.233339 19.912793 -8.411068 2.647883 -1.528762 1.528757 3.351541 4.354491 14.652402 1.998925 -1.154083 1.154082 -0.000004 0.000000 -0.000000 9.109293 -0.518014 2.259902 0.374123 4.240989 -18.557921 0.563764 2.509562 -25.320300 0.010493 0.350900 -3.426114 0.000000 -0.000000 -0.000003 9.533402 0.000006 0.000003 0.229020 3.742472 -13.050400 0.519264 2.413325 -24.284246 0.259080 1.724688 -17.086972 0.000004 0.000001 0.000004 9.104508 -0.042985 -1.865099 1.450727 8.866352 -13.131472 0.450176 2.254083 -22.587562 0.612142 2.609254 -26.403737 -0.000001 0.000001 -0.000002 8.077810 -0.486900 -3.806301 1.190938 7.878235 -12.860722 0.701945 2.782634 -28.312920 0.063146 0.858889 -8.412169 0.000001 -0.000001 0.000002 -8.207802 -6.751711 -1.599538 -83.344277 -0.983680 -8.166586 91.267891 -9.368258 0.585763 0.649016 -2.574153 -3.514940 -0.125171 -0.000003 0.000003 0.000000 0.000002 0.000000 8.207800 -6.751710 -1.599545 -82.274833 -0.104551 12.138990 87.734873 -8.295990 -5.225328 4.172827 0.089983 3.522637 -0.000098 -0.000000 -0.000004 -0.000000 0.000000 0.000000 
-0.059955 57.913757 3.259867 -9.588712 -0.354640 1.343799 -0.000000 10.181553 0.131523 13.936682 -0.898923 -1.051261 2.250086 -0.085529 -0.192037 2.249953 -0.103094 -0.325834 0.000000 16.740366 -2.049020 3.383604 -0.735755 -0.287294 0.000000 9.617866 1.684978 -10.454540 2.005550 0.484310 -0.000000 22.037369 7.501072 -0.000000 -0.000000 0.000000 -4.570000 11.014859 -2.160840 0.191363 25.504644 6.277110 -19.313772 36.003283 31.614425 -0.000008 27.724643 0.000025 20.600573 5.372188 -30.345175 -2.464797 -1.573988 2.681911 -12.729396 -9.989188 9.692879 6.111908 -13.887470 -2.272051 -2.646270 -1.527807 1.527817 3.621748 -4.208573 -15.172697 -1.994586 -1.151599 1.151568 0.000001 -0.000000 -0.000002 -9.108313 -0.517883 2.259802 -1.709741 0.337461 25.725549 0.637854 -2.354440 30.312977 0.155704 -1.195425 14.842037 -0.000000 -0.000001 0.000000 -9.532503 0.000014 0.000000 -0.065234 -2.769860 19.629738 0.661776 -2.394866 30.890504 0.031044 -0.537436 6.612166 -0.000000 0.000001 0.000001 -9.103608 -0.043105 -1.865103 1.383331 -6.115453 25.604651 0.366160 -1.811812 22.849199 0.040008 -0.609764 7.507017 -0.000001 0.000000 0.000004 -8.076704 -0.486700 -3.806294 4.117416 -11.062162 27.857652 0.406446 -1.904517 24.091404 0.070909 -0.810480 10.000492 -0.000002 -0.000001 0.000004 4.570400 11.014686 -2.160814 1.722541 -12.691220 -7.578392 -38.541439 -25.663828 -57.916972 -0.000003 -39.758019 -0.000001 42.382871 -14.147949 38.302956 2.466107 -1.576199 2.681697 -0.796363 7.960919 -3.834630 7.230250 19.905816 -8.407409 2.647886 -1.528759 1.528755 3.381480 4.365967 14.643029 1.998917 -1.154085 1.154076 0.000002 0.000000 -0.000000 9.109303 -0.518019 2.259901 0.374790 4.242951 -18.608779 0.567741 2.517941 -25.411154 0.011396 0.365627 -3.570246 -0.000001 0.000002 0.000001 9.533408 0.000005 -0.000002 0.227899 3.737428 -13.103148 0.519706 2.414338 -24.294995 0.259095 1.724720 -17.087204 0.000000 -0.000001 -0.000000 9.104521 -0.043007 -1.865105 1.453075 8.878382 -13.125473 0.449684 2.252899 -22.574747 0.614434 2.613860 -26.454057 0.000001 0.000002 0.000000 8.077814 -0.486880 -3.806304 1.192703 7.872979 -12.899949 0.703016 2.784623 -28.334983 0.062397 0.853752 -8.361274 -0.000000 0.000000 0.000000 -8.207802 -6.751695 -1.599543 -83.319729 -0.983627 -8.182755 91.281004 -9.367966 0.585779 0.643475 -2.548324 -3.515186 -0.125172 -0.000003 0.000002 0.000000 -0.000000 -0.000000 8.207797 -6.751703 -1.599544 -82.249418 -0.109829 12.135258 87.748287 -8.310451 -5.225411 4.165424 0.090206 3.518851 -0.000100 0.000000 -0.000004 -0.000000 0.000000 0.000000 
-0.054251 57.910263 3.242996 -9.626148 -0.355184 1.342873 0.000000 10.181548 0.131523 13.997149 -0.936780 -1.037100 2.250086 -0.085528 -0.192037 2.249957 -0.103094 -0.325854 -0.000000 16.740351 -2.049020 3.383604 -0.735756 -0.294844 0.000000 9.617848 1.684979 -10.383990 2.054157 0.426974 0.000000 22.037354 7.501076 0.000000 -0.000000 0.000000 -4.569999 11.014880 -2.160839 0.152137 25.312171 6.359256 -18.510876 36.847586 30.896043 0.000008 27.384593 0.000016 19.762642 5.562547 -30.357821 -2.464798 -1.574009 2.681907 -12.729392 -9.989202 9.692889 6.062380 -13.769930 -2.304511 -2.646272 -1.527816 1.527819 3.635873 -4.253338 -15.129641 -1.994578 -1.151586 1.151571 0.000002 -0.000002 -0.000002 -9.108301 -0.517883 2.259801 -1.704006 0.349385 25.610754 0.636490 -2.352123 30.279885 0.156469 -1.198269 14.878374 0.000001 -0.000002 -0.000002 -9.532501 -0.000020 -0.000002 -0.069231 -2.751606 19.512867 0.658513 -2.389396 30.812138 0.030597 -0.533564 6.564442 0.000000 -0.000001 0.000002 -9.103601 -0.043115 -1.865102 1.414698 -6.179547 25.614077 0.368418 -1.817132 22.920327 0.040673 -0.614864 7.570268 0.000000 0.000000 0.000000 -8.076704 -0.486709 -3.806297 4.099332 -11.027990 27.859411 0.409260 -1.910824 24.176218 0.073651 -0.825841 10.192098 -0.000001 -0.000001 0.000002 4.570401 11.014668 -2.160815 1.712746 -12.679229 -7.630986 -38.437880 -25.736464 -57.773244 0.000010 -39.854519 0.000004 42.266269 -14.080374 38.155435 2.466103 -1.576211 2.681700 -0.796348 7.960927 -3.834623 7.193294 19.844252 -8.393776 2.647881 -1.528745 1.528756 3.386877 4.368142 14.651294 1.998929 -1.154086 1.154086 -0.000001 0.000003 -0.000002 9.109300 -0.518013 2.259899 0.366906 4.219550 -18.543018 0.564600 2.511298 -25.339257 0.011804 0.372197 -3.634378 0.000000 -0.000001 -0.000001 9.533401 0.000002 0.000000 0.215510 3.684348 -13.075117 0.520108 2.415230 -24.304320 0.258217 1.721832 -17.057800 0.000000 -0.000001 -0.000000 9.104504 -0.042990 -1.865099 1.443782 8.843375 -13.117029 0.450206 2.254140 -22.588262 0.616271 2.617543 -26.494317 0.000002 0.000003 -0.000003 8.077806 -0.486899 -3.806303 1.180024 7.820832 -12.895532 0.701366 2.781550 -28.301046 0.062771 0.856295 -8.386182 -0.000003 -0.000000 -0.000002 -8.207802 -6.751701 -1.599540 -83.289307 -0.997534 -8.191739 91.266162 -9.369429 0.585718 0.660316 -2.535835 -3.532523 -0.125176 -0.000005 0.000001 0.000000 -0.000000 0.000000 8.207798 -6.751698 -1.599547 -82.216462 -0.114847 12.127901 87.748185 -8.284304 -5.225611 4.170866 0.090354 3.516689 -0.000100 0.000000 -0.000004 0.000000 0.000000 0.000000 
